# Tiled2Unity generated file. Do not modify by hand.
# Wavefront file for '1stBuilding_mesh_0003.obj'

# Vertices (Count = 16)
v -48 -32 0
v -64 -32 0
v -64 -16 0
v -48 -16 0
v -336 -32 0
v -352 -32 0
v -352 -16 0
v -336 -16 0
v -96 -112 0
v -112 -112 0
v -112 -96 0
v -96 -96 0
v -288 -112 0
v -304 -112 0
v -304 -96 0
v -288 -96 0

# Texture cooridinates (Count = 4)
vt 0.075 0.925
vt 0.1 0.925
vt 0.1 0.95
vt 0.075 0.95

# Normal
vn 0 0 -1

# Mesh description
g 1stBuilding_mesh_0003

# Faces
f 1/1/1 2/2/1 3/3/1 4/4/1
f 5/1/1 6/2/1 7/3/1 8/4/1
f 9/1/1 10/2/1 11/3/1 12/4/1
f 13/1/1 14/2/1 15/3/1 16/4/1

