# Tiled2Unity generated file. Do not modify by hand.
# Wavefront file for '2ndstart_mesh_0001.obj'

# Vertices (Count = 852)
v -32 -16 0
v -48 -16 0
v -48 0 0
v -32 0 0
v -128 -16 0
v -144 -16 0
v -144 0 0
v -128 0 0
v -176 -16 0
v -192 -16 0
v -192 0 0
v -176 0 0
v 0 -32 0
v -16 -32 0
v -16 -16 0
v 0 -16 0
v -16 -32 0
v -32 -32 0
v -32 -16 0
v -16 -16 0
v -32 -32 0
v -48 -32 0
v -48 -16 0
v -32 -16 0
v -48 -32 0
v -64 -32 0
v -64 -16 0
v -48 -16 0
v -64 -32 0
v -80 -32 0
v -80 -16 0
v -64 -16 0
v -80 -32 0
v -96 -32 0
v -96 -16 0
v -80 -16 0
v -96 -32 0
v -112 -32 0
v -112 -16 0
v -96 -16 0
v -112 -32 0
v -128 -32 0
v -128 -16 0
v -112 -16 0
v -128 -32 0
v -144 -32 0
v -144 -16 0
v -128 -16 0
v -144 -32 0
v -160 -32 0
v -160 -16 0
v -144 -16 0
v -160 -32 0
v -176 -32 0
v -176 -16 0
v -160 -16 0
v -176 -32 0
v -192 -32 0
v -192 -16 0
v -176 -16 0
v -192 -32 0
v -208 -32 0
v -208 -16 0
v -192 -16 0
v -208 -32 0
v -224 -32 0
v -224 -16 0
v -208 -16 0
v -224 -32 0
v -240 -32 0
v -240 -16 0
v -224 -16 0
v 0 -48 0
v -16 -48 0
v -16 -32 0
v 0 -32 0
v -16 -48 0
v -32 -48 0
v -32 -32 0
v -16 -32 0
v -32 -48 0
v -48 -48 0
v -48 -32 0
v -32 -32 0
v -48 -48 0
v -64 -48 0
v -64 -32 0
v -48 -32 0
v -64 -48 0
v -80 -48 0
v -80 -32 0
v -64 -32 0
v -80 -48 0
v -96 -48 0
v -96 -32 0
v -80 -32 0
v -96 -48 0
v -112 -48 0
v -112 -32 0
v -96 -32 0
v -112 -48 0
v -128 -48 0
v -128 -32 0
v -112 -32 0
v -128 -48 0
v -144 -48 0
v -144 -32 0
v -128 -32 0
v -144 -48 0
v -160 -48 0
v -160 -32 0
v -144 -32 0
v -160 -48 0
v -176 -48 0
v -176 -32 0
v -160 -32 0
v -176 -48 0
v -192 -48 0
v -192 -32 0
v -176 -32 0
v -192 -48 0
v -208 -48 0
v -208 -32 0
v -192 -32 0
v -208 -48 0
v -224 -48 0
v -224 -32 0
v -208 -32 0
v -224 -48 0
v -240 -48 0
v -240 -32 0
v -224 -32 0
v 0 -64 0
v -16 -64 0
v -16 -48 0
v 0 -48 0
v -16 -64 0
v -32 -64 0
v -32 -48 0
v -16 -48 0
v -32 -64 0
v -48 -64 0
v -48 -48 0
v -32 -48 0
v -48 -64 0
v -64 -64 0
v -64 -48 0
v -48 -48 0
v -64 -64 0
v -80 -64 0
v -80 -48 0
v -64 -48 0
v -80 -64 0
v -96 -64 0
v -96 -48 0
v -80 -48 0
v -96 -64 0
v -112 -64 0
v -112 -48 0
v -96 -48 0
v -112 -64 0
v -128 -64 0
v -128 -48 0
v -112 -48 0
v -128 -64 0
v -144 -64 0
v -144 -48 0
v -128 -48 0
v -144 -64 0
v -160 -64 0
v -160 -48 0
v -144 -48 0
v -160 -64 0
v -176 -64 0
v -176 -48 0
v -160 -48 0
v -176 -64 0
v -192 -64 0
v -192 -48 0
v -176 -48 0
v -192 -64 0
v -208 -64 0
v -208 -48 0
v -192 -48 0
v -208 -64 0
v -224 -64 0
v -224 -48 0
v -208 -48 0
v -224 -64 0
v -240 -64 0
v -240 -48 0
v -224 -48 0
v 0 -80 0
v -16 -80 0
v -16 -64 0
v 0 -64 0
v -16 -80 0
v -32 -80 0
v -32 -64 0
v -16 -64 0
v -32 -80 0
v -48 -80 0
v -48 -64 0
v -32 -64 0
v -48 -80 0
v -64 -80 0
v -64 -64 0
v -48 -64 0
v -64 -80 0
v -80 -80 0
v -80 -64 0
v -64 -64 0
v -80 -80 0
v -96 -80 0
v -96 -64 0
v -80 -64 0
v -96 -80 0
v -112 -80 0
v -112 -64 0
v -96 -64 0
v -112 -80 0
v -128 -80 0
v -128 -64 0
v -112 -64 0
v -128 -80 0
v -144 -80 0
v -144 -64 0
v -128 -64 0
v -144 -80 0
v -160 -80 0
v -160 -64 0
v -144 -64 0
v -160 -80 0
v -176 -80 0
v -176 -64 0
v -160 -64 0
v -176 -80 0
v -192 -80 0
v -192 -64 0
v -176 -64 0
v -192 -80 0
v -208 -80 0
v -208 -64 0
v -192 -64 0
v -208 -80 0
v -224 -80 0
v -224 -64 0
v -208 -64 0
v -224 -80 0
v -240 -80 0
v -240 -64 0
v -224 -64 0
v 0 -96 0
v -16 -96 0
v -16 -80 0
v 0 -80 0
v -16 -96 0
v -32 -96 0
v -32 -80 0
v -16 -80 0
v -32 -96 0
v -48 -96 0
v -48 -80 0
v -32 -80 0
v -48 -96 0
v -64 -96 0
v -64 -80 0
v -48 -80 0
v -64 -96 0
v -80 -96 0
v -80 -80 0
v -64 -80 0
v -80 -96 0
v -96 -96 0
v -96 -80 0
v -80 -80 0
v -96 -96 0
v -112 -96 0
v -112 -80 0
v -96 -80 0
v -112 -96 0
v -128 -96 0
v -128 -80 0
v -112 -80 0
v -128 -96 0
v -144 -96 0
v -144 -80 0
v -128 -80 0
v -144 -96 0
v -160 -96 0
v -160 -80 0
v -144 -80 0
v -160 -96 0
v -176 -96 0
v -176 -80 0
v -160 -80 0
v -176 -96 0
v -192 -96 0
v -192 -80 0
v -176 -80 0
v -192 -96 0
v -208 -96 0
v -208 -80 0
v -192 -80 0
v -208 -96 0
v -224 -96 0
v -224 -80 0
v -208 -80 0
v -224 -96 0
v -240 -96 0
v -240 -80 0
v -224 -80 0
v 0 -112 0
v -16 -112 0
v -16 -96 0
v 0 -96 0
v -16 -112 0
v -32 -112 0
v -32 -96 0
v -16 -96 0
v -32 -112 0
v -48 -112 0
v -48 -96 0
v -32 -96 0
v -48 -112 0
v -64 -112 0
v -64 -96 0
v -48 -96 0
v -64 -112 0
v -80 -112 0
v -80 -96 0
v -64 -96 0
v -80 -112 0
v -96 -112 0
v -96 -96 0
v -80 -96 0
v -96 -112 0
v -112 -112 0
v -112 -96 0
v -96 -96 0
v -112 -112 0
v -128 -112 0
v -128 -96 0
v -112 -96 0
v -128 -112 0
v -144 -112 0
v -144 -96 0
v -128 -96 0
v -144 -112 0
v -160 -112 0
v -160 -96 0
v -144 -96 0
v -160 -112 0
v -176 -112 0
v -176 -96 0
v -160 -96 0
v -176 -112 0
v -192 -112 0
v -192 -96 0
v -176 -96 0
v -192 -112 0
v -208 -112 0
v -208 -96 0
v -192 -96 0
v -208 -112 0
v -224 -112 0
v -224 -96 0
v -208 -96 0
v -224 -112 0
v -240 -112 0
v -240 -96 0
v -224 -96 0
v 0 -128 0
v -16 -128 0
v -16 -112 0
v 0 -112 0
v -16 -128 0
v -32 -128 0
v -32 -112 0
v -16 -112 0
v -32 -128 0
v -48 -128 0
v -48 -112 0
v -32 -112 0
v -48 -128 0
v -64 -128 0
v -64 -112 0
v -48 -112 0
v -64 -128 0
v -80 -128 0
v -80 -112 0
v -64 -112 0
v -80 -128 0
v -96 -128 0
v -96 -112 0
v -80 -112 0
v -96 -128 0
v -112 -128 0
v -112 -112 0
v -96 -112 0
v -112 -128 0
v -128 -128 0
v -128 -112 0
v -112 -112 0
v -128 -128 0
v -144 -128 0
v -144 -112 0
v -128 -112 0
v -144 -128 0
v -160 -128 0
v -160 -112 0
v -144 -112 0
v -160 -128 0
v -176 -128 0
v -176 -112 0
v -160 -112 0
v -176 -128 0
v -192 -128 0
v -192 -112 0
v -176 -112 0
v -192 -128 0
v -208 -128 0
v -208 -112 0
v -192 -112 0
v -208 -128 0
v -224 -128 0
v -224 -112 0
v -208 -112 0
v -224 -128 0
v -240 -128 0
v -240 -112 0
v -224 -112 0
v 0 -144 0
v -16 -144 0
v -16 -128 0
v 0 -128 0
v -16 -144 0
v -32 -144 0
v -32 -128 0
v -16 -128 0
v -32 -144 0
v -48 -144 0
v -48 -128 0
v -32 -128 0
v -48 -144 0
v -64 -144 0
v -64 -128 0
v -48 -128 0
v -64 -144 0
v -80 -144 0
v -80 -128 0
v -64 -128 0
v -80 -144 0
v -96 -144 0
v -96 -128 0
v -80 -128 0
v -96 -144 0
v -112 -144 0
v -112 -128 0
v -96 -128 0
v -112 -144 0
v -128 -144 0
v -128 -128 0
v -112 -128 0
v -128 -144 0
v -144 -144 0
v -144 -128 0
v -128 -128 0
v -144 -144 0
v -160 -144 0
v -160 -128 0
v -144 -128 0
v -160 -144 0
v -176 -144 0
v -176 -128 0
v -160 -128 0
v -176 -144 0
v -192 -144 0
v -192 -128 0
v -176 -128 0
v -192 -144 0
v -208 -144 0
v -208 -128 0
v -192 -128 0
v -208 -144 0
v -224 -144 0
v -224 -128 0
v -208 -128 0
v -224 -144 0
v -240 -144 0
v -240 -128 0
v -224 -128 0
v 0 -160 0
v -16 -160 0
v -16 -144 0
v 0 -144 0
v -16 -160 0
v -32 -160 0
v -32 -144 0
v -16 -144 0
v -32 -160 0
v -48 -160 0
v -48 -144 0
v -32 -144 0
v -48 -160 0
v -64 -160 0
v -64 -144 0
v -48 -144 0
v -64 -160 0
v -80 -160 0
v -80 -144 0
v -64 -144 0
v -80 -160 0
v -96 -160 0
v -96 -144 0
v -80 -144 0
v -96 -160 0
v -112 -160 0
v -112 -144 0
v -96 -144 0
v -112 -160 0
v -128 -160 0
v -128 -144 0
v -112 -144 0
v -128 -160 0
v -144 -160 0
v -144 -144 0
v -128 -144 0
v -144 -160 0
v -160 -160 0
v -160 -144 0
v -144 -144 0
v -160 -160 0
v -176 -160 0
v -176 -144 0
v -160 -144 0
v -176 -160 0
v -192 -160 0
v -192 -144 0
v -176 -144 0
v -192 -160 0
v -208 -160 0
v -208 -144 0
v -192 -144 0
v -208 -160 0
v -224 -160 0
v -224 -144 0
v -208 -144 0
v -224 -160 0
v -240 -160 0
v -240 -144 0
v -224 -144 0
v 0 -176 0
v -16 -176 0
v -16 -160 0
v 0 -160 0
v -16 -176 0
v -32 -176 0
v -32 -160 0
v -16 -160 0
v -32 -176 0
v -48 -176 0
v -48 -160 0
v -32 -160 0
v -48 -176 0
v -64 -176 0
v -64 -160 0
v -48 -160 0
v -64 -176 0
v -80 -176 0
v -80 -160 0
v -64 -160 0
v -80 -176 0
v -96 -176 0
v -96 -160 0
v -80 -160 0
v -96 -176 0
v -112 -176 0
v -112 -160 0
v -96 -160 0
v -112 -176 0
v -128 -176 0
v -128 -160 0
v -112 -160 0
v -128 -176 0
v -144 -176 0
v -144 -160 0
v -128 -160 0
v -144 -176 0
v -160 -176 0
v -160 -160 0
v -144 -160 0
v -160 -176 0
v -176 -176 0
v -176 -160 0
v -160 -160 0
v -176 -176 0
v -192 -176 0
v -192 -160 0
v -176 -160 0
v -192 -176 0
v -208 -176 0
v -208 -160 0
v -192 -160 0
v -208 -176 0
v -224 -176 0
v -224 -160 0
v -208 -160 0
v -224 -176 0
v -240 -176 0
v -240 -160 0
v -224 -160 0
v 0 -192 0
v -16 -192 0
v -16 -176 0
v 0 -176 0
v -16 -192 0
v -32 -192 0
v -32 -176 0
v -16 -176 0
v -32 -192 0
v -48 -192 0
v -48 -176 0
v -32 -176 0
v -48 -192 0
v -64 -192 0
v -64 -176 0
v -48 -176 0
v -64 -192 0
v -80 -192 0
v -80 -176 0
v -64 -176 0
v -80 -192 0
v -96 -192 0
v -96 -176 0
v -80 -176 0
v -96 -192 0
v -112 -192 0
v -112 -176 0
v -96 -176 0
v -112 -192 0
v -128 -192 0
v -128 -176 0
v -112 -176 0
v -128 -192 0
v -144 -192 0
v -144 -176 0
v -128 -176 0
v -144 -192 0
v -160 -192 0
v -160 -176 0
v -144 -176 0
v -160 -192 0
v -176 -192 0
v -176 -176 0
v -160 -176 0
v -176 -192 0
v -192 -192 0
v -192 -176 0
v -176 -176 0
v -192 -192 0
v -208 -192 0
v -208 -176 0
v -192 -176 0
v -208 -192 0
v -224 -192 0
v -224 -176 0
v -208 -176 0
v -224 -192 0
v -240 -192 0
v -240 -176 0
v -224 -176 0
v 0 -208 0
v -16 -208 0
v -16 -192 0
v 0 -192 0
v -16 -208 0
v -32 -208 0
v -32 -192 0
v -16 -192 0
v -32 -208 0
v -48 -208 0
v -48 -192 0
v -32 -192 0
v -48 -208 0
v -64 -208 0
v -64 -192 0
v -48 -192 0
v -64 -208 0
v -80 -208 0
v -80 -192 0
v -64 -192 0
v -80 -208 0
v -96 -208 0
v -96 -192 0
v -80 -192 0
v -96 -208 0
v -112 -208 0
v -112 -192 0
v -96 -192 0
v -112 -208 0
v -128 -208 0
v -128 -192 0
v -112 -192 0
v -128 -208 0
v -144 -208 0
v -144 -192 0
v -128 -192 0
v -144 -208 0
v -160 -208 0
v -160 -192 0
v -144 -192 0
v -160 -208 0
v -176 -208 0
v -176 -192 0
v -160 -192 0
v -176 -208 0
v -192 -208 0
v -192 -192 0
v -176 -192 0
v -192 -208 0
v -208 -208 0
v -208 -192 0
v -192 -192 0
v -208 -208 0
v -224 -208 0
v -224 -192 0
v -208 -192 0
v -224 -208 0
v -240 -208 0
v -240 -192 0
v -224 -192 0
v 0 -224 0
v -16 -224 0
v -16 -208 0
v 0 -208 0
v -16 -224 0
v -32 -224 0
v -32 -208 0
v -16 -208 0
v -32 -224 0
v -48 -224 0
v -48 -208 0
v -32 -208 0
v -48 -224 0
v -64 -224 0
v -64 -208 0
v -48 -208 0
v -64 -224 0
v -80 -224 0
v -80 -208 0
v -64 -208 0
v -80 -224 0
v -96 -224 0
v -96 -208 0
v -80 -208 0
v -96 -224 0
v -112 -224 0
v -112 -208 0
v -96 -208 0
v -112 -224 0
v -128 -224 0
v -128 -208 0
v -112 -208 0
v -128 -224 0
v -144 -224 0
v -144 -208 0
v -128 -208 0
v -144 -224 0
v -160 -224 0
v -160 -208 0
v -144 -208 0
v -160 -224 0
v -176 -224 0
v -176 -208 0
v -160 -208 0
v -176 -224 0
v -192 -224 0
v -192 -208 0
v -176 -208 0
v -192 -224 0
v -208 -224 0
v -208 -208 0
v -192 -208 0
v -208 -224 0
v -224 -224 0
v -224 -208 0
v -208 -208 0
v -224 -224 0
v -240 -224 0
v -240 -208 0
v -224 -208 0
v 0 -240 0
v -16 -240 0
v -16 -224 0
v 0 -224 0
v -16 -240 0
v -32 -240 0
v -32 -224 0
v -16 -224 0
v -32 -240 0
v -48 -240 0
v -48 -224 0
v -32 -224 0
v -48 -240 0
v -64 -240 0
v -64 -224 0
v -48 -224 0
v -64 -240 0
v -80 -240 0
v -80 -224 0
v -64 -224 0
v -80 -240 0
v -96 -240 0
v -96 -224 0
v -80 -224 0
v -96 -240 0
v -112 -240 0
v -112 -224 0
v -96 -224 0
v -112 -240 0
v -128 -240 0
v -128 -224 0
v -112 -224 0
v -128 -240 0
v -144 -240 0
v -144 -224 0
v -128 -224 0
v -144 -240 0
v -160 -240 0
v -160 -224 0
v -144 -224 0
v -160 -240 0
v -176 -240 0
v -176 -224 0
v -160 -224 0
v -176 -240 0
v -192 -240 0
v -192 -224 0
v -176 -224 0
v -192 -240 0
v -208 -240 0
v -208 -224 0
v -192 -224 0
v -208 -240 0
v -224 -240 0
v -224 -224 0
v -208 -224 0
v -224 -240 0
v -240 -240 0
v -240 -224 0
v -224 -224 0

# Texture cooridinates (Count = 26)
vt 0.9411765 0.25
vt 1 0.25
vt 1 0.375
vt 0.9411765 0.375
vt 0.8235294 0.125
vt 0.8823529 0.125
vt 0.8823529 0.25
vt 0.8235294 0.25
vt 0.9411765 0.125
vt 1 0.125
vt 0.5882353 0.875
vt 0.6470588 0.875
vt 0.6470588 1
vt 0.5882353 1
vt 0.7058824 0.875
vt 0.7058824 1
vt 0.7647059 0.875
vt 0.7647059 1
vt 0.5882353 0.75
vt 0.6470588 0.75
vt 0.7058824 0.75
vt 0.7647059 0.75
vt 0.4117647 0.75
vt 0.4705882 0.75
vt 0.4705882 0.875
vt 0.4117647 0.875

# Normal
vn 0 0 -1

# Mesh description
g 2ndstart_mesh_0001

# Faces
f 1/1/1 2/2/1 3/3/1 4/4/1
f 5/5/1 6/6/1 7/7/1 8/8/1
f 9/9/1 10/10/1 11/2/1 12/1/1
f 13/11/1 14/12/1 15/13/1 16/14/1
f 17/12/1 18/15/1 19/16/1 20/13/1
f 21/12/1 22/15/1 23/16/1 24/13/1
f 25/12/1 26/15/1 27/16/1 28/13/1
f 29/12/1 30/15/1 31/16/1 32/13/1
f 33/12/1 34/15/1 35/16/1 36/13/1
f 37/12/1 38/15/1 39/16/1 40/13/1
f 41/12/1 42/15/1 43/16/1 44/13/1
f 45/12/1 46/15/1 47/16/1 48/13/1
f 49/12/1 50/15/1 51/16/1 52/13/1
f 53/12/1 54/15/1 55/16/1 56/13/1
f 57/12/1 58/15/1 59/16/1 60/13/1
f 61/12/1 62/15/1 63/16/1 64/13/1
f 65/12/1 66/15/1 67/16/1 68/13/1
f 69/15/1 70/17/1 71/18/1 72/16/1
f 73/19/1 74/20/1 75/12/1 76/11/1
f 77/20/1 78/21/1 79/15/1 80/12/1
f 81/20/1 82/21/1 83/15/1 84/12/1
f 85/20/1 86/21/1 87/15/1 88/12/1
f 89/20/1 90/21/1 91/15/1 92/12/1
f 93/20/1 94/21/1 95/15/1 96/12/1
f 97/20/1 98/21/1 99/15/1 100/12/1
f 101/20/1 102/21/1 103/15/1 104/12/1
f 105/20/1 106/21/1 107/15/1 108/12/1
f 109/20/1 110/21/1 111/15/1 112/12/1
f 113/20/1 114/21/1 115/15/1 116/12/1
f 117/20/1 118/21/1 119/15/1 120/12/1
f 121/20/1 122/21/1 123/15/1 124/12/1
f 125/20/1 126/21/1 127/15/1 128/12/1
f 129/21/1 130/22/1 131/17/1 132/15/1
f 133/19/1 134/20/1 135/12/1 136/11/1
f 137/20/1 138/21/1 139/15/1 140/12/1
f 141/23/1 142/24/1 143/25/1 144/26/1
f 145/20/1 146/21/1 147/15/1 148/12/1
f 149/20/1 150/21/1 151/15/1 152/12/1
f 153/20/1 154/21/1 155/15/1 156/12/1
f 157/20/1 158/21/1 159/15/1 160/12/1
f 161/20/1 162/21/1 163/15/1 164/12/1
f 165/20/1 166/21/1 167/15/1 168/12/1
f 169/20/1 170/21/1 171/15/1 172/12/1
f 173/23/1 174/24/1 175/25/1 176/26/1
f 177/20/1 178/21/1 179/15/1 180/12/1
f 181/20/1 182/21/1 183/15/1 184/12/1
f 185/20/1 186/21/1 187/15/1 188/12/1
f 189/21/1 190/22/1 191/17/1 192/15/1
f 193/19/1 194/20/1 195/12/1 196/11/1
f 197/20/1 198/21/1 199/15/1 200/12/1
f 201/23/1 202/24/1 203/25/1 204/26/1
f 205/23/1 206/24/1 207/25/1 208/26/1
f 209/23/1 210/24/1 211/25/1 212/26/1
f 213/23/1 214/24/1 215/25/1 216/26/1
f 217/20/1 218/21/1 219/15/1 220/12/1
f 221/20/1 222/21/1 223/15/1 224/12/1
f 225/20/1 226/21/1 227/15/1 228/12/1
f 229/20/1 230/21/1 231/15/1 232/12/1
f 233/20/1 234/21/1 235/15/1 236/12/1
f 237/20/1 238/21/1 239/15/1 240/12/1
f 241/20/1 242/21/1 243/15/1 244/12/1
f 245/20/1 246/21/1 247/15/1 248/12/1
f 249/21/1 250/22/1 251/17/1 252/15/1
f 253/19/1 254/20/1 255/12/1 256/11/1
f 257/20/1 258/21/1 259/15/1 260/12/1
f 261/23/1 262/24/1 263/25/1 264/26/1
f 265/23/1 266/24/1 267/25/1 268/26/1
f 269/20/1 270/21/1 271/15/1 272/12/1
f 273/23/1 274/24/1 275/25/1 276/26/1
f 277/20/1 278/21/1 279/15/1 280/12/1
f 281/20/1 282/21/1 283/15/1 284/12/1
f 285/20/1 286/21/1 287/15/1 288/12/1
f 289/20/1 290/21/1 291/15/1 292/12/1
f 293/20/1 294/21/1 295/15/1 296/12/1
f 297/20/1 298/21/1 299/15/1 300/12/1
f 301/23/1 302/24/1 303/25/1 304/26/1
f 305/20/1 306/21/1 307/15/1 308/12/1
f 309/21/1 310/22/1 311/17/1 312/15/1
f 313/19/1 314/20/1 315/12/1 316/11/1
f 317/20/1 318/21/1 319/15/1 320/12/1
f 321/20/1 322/21/1 323/15/1 324/12/1
f 325/23/1 326/24/1 327/25/1 328/26/1
f 329/20/1 330/21/1 331/15/1 332/12/1
f 333/20/1 334/21/1 335/15/1 336/12/1
f 337/20/1 338/21/1 339/15/1 340/12/1
f 341/20/1 342/21/1 343/15/1 344/12/1
f 345/20/1 346/21/1 347/15/1 348/12/1
f 349/20/1 350/21/1 351/15/1 352/12/1
f 353/20/1 354/21/1 355/15/1 356/12/1
f 357/20/1 358/21/1 359/15/1 360/12/1
f 361/23/1 362/24/1 363/25/1 364/26/1
f 365/23/1 366/24/1 367/25/1 368/26/1
f 369/21/1 370/22/1 371/17/1 372/15/1
f 373/19/1 374/20/1 375/12/1 376/11/1
f 377/20/1 378/21/1 379/15/1 380/12/1
f 381/20/1 382/21/1 383/15/1 384/12/1
f 385/20/1 386/21/1 387/15/1 388/12/1
f 389/20/1 390/21/1 391/15/1 392/12/1
f 393/20/1 394/21/1 395/15/1 396/12/1
f 397/20/1 398/21/1 399/15/1 400/12/1
f 401/23/1 402/24/1 403/25/1 404/26/1
f 405/23/1 406/24/1 407/25/1 408/26/1
f 409/23/1 410/24/1 411/25/1 412/26/1
f 413/23/1 414/24/1 415/25/1 416/26/1
f 417/20/1 418/21/1 419/15/1 420/12/1
f 421/20/1 422/21/1 423/15/1 424/12/1
f 425/20/1 426/21/1 427/15/1 428/12/1
f 429/21/1 430/22/1 431/17/1 432/15/1
f 433/19/1 434/20/1 435/12/1 436/11/1
f 437/20/1 438/21/1 439/15/1 440/12/1
f 441/20/1 442/21/1 443/15/1 444/12/1
f 445/20/1 446/21/1 447/15/1 448/12/1
f 449/20/1 450/21/1 451/15/1 452/12/1
f 453/23/1 454/24/1 455/25/1 456/26/1
f 457/23/1 458/24/1 459/25/1 460/26/1
f 461/23/1 462/24/1 463/25/1 464/26/1
f 465/20/1 466/21/1 467/15/1 468/12/1
f 469/20/1 470/21/1 471/15/1 472/12/1
f 473/20/1 474/21/1 475/15/1 476/12/1
f 477/20/1 478/21/1 479/15/1 480/12/1
f 481/20/1 482/21/1 483/15/1 484/12/1
f 485/20/1 486/21/1 487/15/1 488/12/1
f 489/21/1 490/22/1 491/17/1 492/15/1
f 493/19/1 494/20/1 495/12/1 496/11/1
f 497/20/1 498/21/1 499/15/1 500/12/1
f 501/20/1 502/21/1 503/15/1 504/12/1
f 505/20/1 506/21/1 507/15/1 508/12/1
f 509/20/1 510/21/1 511/15/1 512/12/1
f 513/20/1 514/21/1 515/15/1 516/12/1
f 517/20/1 518/21/1 519/15/1 520/12/1
f 521/20/1 522/21/1 523/15/1 524/12/1
f 525/20/1 526/21/1 527/15/1 528/12/1
f 529/20/1 530/21/1 531/15/1 532/12/1
f 533/20/1 534/21/1 535/15/1 536/12/1
f 537/20/1 538/21/1 539/15/1 540/12/1
f 541/20/1 542/21/1 543/15/1 544/12/1
f 545/20/1 546/21/1 547/15/1 548/12/1
f 549/21/1 550/22/1 551/17/1 552/15/1
f 553/19/1 554/20/1 555/12/1 556/11/1
f 557/20/1 558/21/1 559/15/1 560/12/1
f 561/20/1 562/21/1 563/15/1 564/12/1
f 565/20/1 566/21/1 567/15/1 568/12/1
f 569/20/1 570/21/1 571/15/1 572/12/1
f 573/23/1 574/24/1 575/25/1 576/26/1
f 577/20/1 578/21/1 579/15/1 580/12/1
f 581/20/1 582/21/1 583/15/1 584/12/1
f 585/20/1 586/21/1 587/15/1 588/12/1
f 589/20/1 590/21/1 591/15/1 592/12/1
f 593/20/1 594/21/1 595/15/1 596/12/1
f 597/20/1 598/21/1 599/15/1 600/12/1
f 601/20/1 602/21/1 603/15/1 604/12/1
f 605/20/1 606/21/1 607/15/1 608/12/1
f 609/21/1 610/22/1 611/17/1 612/15/1
f 613/19/1 614/20/1 615/12/1 616/11/1
f 617/20/1 618/21/1 619/15/1 620/12/1
f 621/23/1 622/24/1 623/25/1 624/26/1
f 625/23/1 626/24/1 627/25/1 628/26/1
f 629/20/1 630/21/1 631/15/1 632/12/1
f 633/23/1 634/24/1 635/25/1 636/26/1
f 637/20/1 638/21/1 639/15/1 640/12/1
f 641/20/1 642/21/1 643/15/1 644/12/1
f 645/23/1 646/24/1 647/25/1 648/26/1
f 649/20/1 650/21/1 651/15/1 652/12/1
f 653/20/1 654/21/1 655/15/1 656/12/1
f 657/20/1 658/21/1 659/15/1 660/12/1
f 661/23/1 662/24/1 663/25/1 664/26/1
f 665/20/1 666/21/1 667/15/1 668/12/1
f 669/21/1 670/22/1 671/17/1 672/15/1
f 673/19/1 674/20/1 675/12/1 676/11/1
f 677/20/1 678/21/1 679/15/1 680/12/1
f 681/23/1 682/24/1 683/25/1 684/26/1
f 685/20/1 686/21/1 687/15/1 688/12/1
f 689/20/1 690/21/1 691/15/1 692/12/1
f 693/23/1 694/24/1 695/25/1 696/26/1
f 697/20/1 698/21/1 699/15/1 700/12/1
f 701/20/1 702/21/1 703/15/1 704/12/1
f 705/23/1 706/24/1 707/25/1 708/26/1
f 709/20/1 710/21/1 711/15/1 712/12/1
f 713/20/1 714/21/1 715/15/1 716/12/1
f 717/20/1 718/21/1 719/15/1 720/12/1
f 721/20/1 722/21/1 723/15/1 724/12/1
f 725/20/1 726/21/1 727/15/1 728/12/1
f 729/21/1 730/22/1 731/17/1 732/15/1
f 733/19/1 734/20/1 735/12/1 736/11/1
f 737/20/1 738/21/1 739/15/1 740/12/1
f 741/23/1 742/24/1 743/25/1 744/26/1
f 745/20/1 746/21/1 747/15/1 748/12/1
f 749/20/1 750/21/1 751/15/1 752/12/1
f 753/20/1 754/21/1 755/15/1 756/12/1
f 757/20/1 758/21/1 759/15/1 760/12/1
f 761/20/1 762/21/1 763/15/1 764/12/1
f 765/23/1 766/24/1 767/25/1 768/26/1
f 769/20/1 770/21/1 771/15/1 772/12/1
f 773/20/1 774/21/1 775/15/1 776/12/1
f 777/20/1 778/21/1 779/15/1 780/12/1
f 781/20/1 782/21/1 783/15/1 784/12/1
f 785/20/1 786/21/1 787/15/1 788/12/1
f 789/21/1 790/22/1 791/17/1 792/15/1
f 793/19/1 794/20/1 795/12/1 796/11/1
f 797/20/1 798/21/1 799/15/1 800/12/1
f 801/23/1 802/24/1 803/25/1 804/26/1
f 805/23/1 806/24/1 807/25/1 808/26/1
f 809/20/1 810/21/1 811/15/1 812/12/1
f 813/20/1 814/21/1 815/15/1 816/12/1
f 817/20/1 818/21/1 819/15/1 820/12/1
f 821/20/1 822/21/1 823/15/1 824/12/1
f 825/20/1 826/21/1 827/15/1 828/12/1
f 829/20/1 830/21/1 831/15/1 832/12/1
f 833/20/1 834/21/1 835/15/1 836/12/1
f 837/20/1 838/21/1 839/15/1 840/12/1
f 841/20/1 842/21/1 843/15/1 844/12/1
f 845/20/1 846/21/1 847/15/1 848/12/1
f 849/21/1 850/22/1 851/17/1 852/15/1

