# Tiled2Unity generated file. Do not modify by hand.
# Wavefront file for 'start_mesh_0001.obj'

# Vertices (Count = 1000)
v -80 -144 0
v -96 -144 0
v -96 -128 0
v -80 -128 0
v -128 -144 0
v -144 -144 0
v -144 -128 0
v -128 -128 0
v -144 -144 0
v -160 -144 0
v -160 -128 0
v -144 -128 0
v -192 -144 0
v -208 -144 0
v -208 -128 0
v -192 -128 0
v -240 -144 0
v -256 -144 0
v -256 -128 0
v -240 -128 0
v -336 -144 0
v -352 -144 0
v -352 -128 0
v -336 -128 0
v -400 -144 0
v -416 -144 0
v -416 -128 0
v -400 -128 0
v -416 -144 0
v -432 -144 0
v -432 -128 0
v -416 -128 0
v -64 -160 0
v -80 -160 0
v -80 -144 0
v -64 -144 0
v -80 -160 0
v -96 -160 0
v -96 -144 0
v -80 -144 0
v -96 -160 0
v -112 -160 0
v -112 -144 0
v -96 -144 0
v -112 -160 0
v -128 -160 0
v -128 -144 0
v -112 -144 0
v -128 -160 0
v -144 -160 0
v -144 -144 0
v -128 -144 0
v -144 -160 0
v -160 -160 0
v -160 -144 0
v -144 -144 0
v -160 -160 0
v -176 -160 0
v -176 -144 0
v -160 -144 0
v -176 -160 0
v -192 -160 0
v -192 -144 0
v -176 -144 0
v -192 -160 0
v -208 -160 0
v -208 -144 0
v -192 -144 0
v -208 -160 0
v -224 -160 0
v -224 -144 0
v -208 -144 0
v -224 -160 0
v -240 -160 0
v -240 -144 0
v -224 -144 0
v -240 -160 0
v -256 -160 0
v -256 -144 0
v -240 -144 0
v -256 -160 0
v -272 -160 0
v -272 -144 0
v -256 -144 0
v -272 -160 0
v -288 -160 0
v -288 -144 0
v -272 -144 0
v -320 -160 0
v -336 -160 0
v -336 -144 0
v -320 -144 0
v -336 -160 0
v -352 -160 0
v -352 -144 0
v -336 -144 0
v -352 -160 0
v -368 -160 0
v -368 -144 0
v -352 -144 0
v -368 -160 0
v -384 -160 0
v -384 -144 0
v -368 -144 0
v -384 -160 0
v -400 -160 0
v -400 -144 0
v -384 -144 0
v -400 -160 0
v -416 -160 0
v -416 -144 0
v -400 -144 0
v -416 -160 0
v -432 -160 0
v -432 -144 0
v -416 -144 0
v -432 -160 0
v -448 -160 0
v -448 -144 0
v -432 -144 0
v -448 -160 0
v -464 -160 0
v -464 -144 0
v -448 -144 0
v -464 -160 0
v -480 -160 0
v -480 -144 0
v -464 -144 0
v -64 -176 0
v -80 -176 0
v -80 -160 0
v -64 -160 0
v -80 -176 0
v -96 -176 0
v -96 -160 0
v -80 -160 0
v -96 -176 0
v -112 -176 0
v -112 -160 0
v -96 -160 0
v -112 -176 0
v -128 -176 0
v -128 -160 0
v -112 -160 0
v -128 -176 0
v -144 -176 0
v -144 -160 0
v -128 -160 0
v -144 -176 0
v -160 -176 0
v -160 -160 0
v -144 -160 0
v -160 -176 0
v -176 -176 0
v -176 -160 0
v -160 -160 0
v -176 -176 0
v -192 -176 0
v -192 -160 0
v -176 -160 0
v -192 -176 0
v -208 -176 0
v -208 -160 0
v -192 -160 0
v -208 -176 0
v -224 -176 0
v -224 -160 0
v -208 -160 0
v -224 -176 0
v -240 -176 0
v -240 -160 0
v -224 -160 0
v -240 -176 0
v -256 -176 0
v -256 -160 0
v -240 -160 0
v -256 -176 0
v -272 -176 0
v -272 -160 0
v -256 -160 0
v -272 -176 0
v -288 -176 0
v -288 -160 0
v -272 -160 0
v -320 -176 0
v -336 -176 0
v -336 -160 0
v -320 -160 0
v -336 -176 0
v -352 -176 0
v -352 -160 0
v -336 -160 0
v -352 -176 0
v -368 -176 0
v -368 -160 0
v -352 -160 0
v -368 -176 0
v -384 -176 0
v -384 -160 0
v -368 -160 0
v -384 -176 0
v -400 -176 0
v -400 -160 0
v -384 -160 0
v -400 -176 0
v -416 -176 0
v -416 -160 0
v -400 -160 0
v -416 -176 0
v -432 -176 0
v -432 -160 0
v -416 -160 0
v -432 -176 0
v -448 -176 0
v -448 -160 0
v -432 -160 0
v -448 -176 0
v -464 -176 0
v -464 -160 0
v -448 -160 0
v -464 -176 0
v -480 -176 0
v -480 -160 0
v -464 -160 0
v -64 -192 0
v -80 -192 0
v -80 -176 0
v -64 -176 0
v -80 -192 0
v -96 -192 0
v -96 -176 0
v -80 -176 0
v -96 -192 0
v -112 -192 0
v -112 -176 0
v -96 -176 0
v -112 -192 0
v -128 -192 0
v -128 -176 0
v -112 -176 0
v -128 -192 0
v -144 -192 0
v -144 -176 0
v -128 -176 0
v -144 -192 0
v -160 -192 0
v -160 -176 0
v -144 -176 0
v -160 -192 0
v -176 -192 0
v -176 -176 0
v -160 -176 0
v -176 -192 0
v -192 -192 0
v -192 -176 0
v -176 -176 0
v -192 -192 0
v -208 -192 0
v -208 -176 0
v -192 -176 0
v -208 -192 0
v -224 -192 0
v -224 -176 0
v -208 -176 0
v -224 -192 0
v -240 -192 0
v -240 -176 0
v -224 -176 0
v -240 -192 0
v -256 -192 0
v -256 -176 0
v -240 -176 0
v -256 -192 0
v -272 -192 0
v -272 -176 0
v -256 -176 0
v -272 -192 0
v -288 -192 0
v -288 -176 0
v -272 -176 0
v -320 -192 0
v -336 -192 0
v -336 -176 0
v -320 -176 0
v -336 -192 0
v -352 -192 0
v -352 -176 0
v -336 -176 0
v -352 -192 0
v -368 -192 0
v -368 -176 0
v -352 -176 0
v -368 -192 0
v -384 -192 0
v -384 -176 0
v -368 -176 0
v -384 -192 0
v -400 -192 0
v -400 -176 0
v -384 -176 0
v -400 -192 0
v -416 -192 0
v -416 -176 0
v -400 -176 0
v -416 -192 0
v -432 -192 0
v -432 -176 0
v -416 -176 0
v -432 -192 0
v -448 -192 0
v -448 -176 0
v -432 -176 0
v -448 -192 0
v -464 -192 0
v -464 -176 0
v -448 -176 0
v -464 -192 0
v -480 -192 0
v -480 -176 0
v -464 -176 0
v -64 -208 0
v -80 -208 0
v -80 -192 0
v -64 -192 0
v -80 -208 0
v -96 -208 0
v -96 -192 0
v -80 -192 0
v -96 -208 0
v -112 -208 0
v -112 -192 0
v -96 -192 0
v -112 -208 0
v -128 -208 0
v -128 -192 0
v -112 -192 0
v -128 -208 0
v -144 -208 0
v -144 -192 0
v -128 -192 0
v -144 -208 0
v -160 -208 0
v -160 -192 0
v -144 -192 0
v -160 -208 0
v -176 -208 0
v -176 -192 0
v -160 -192 0
v -176 -208 0
v -192 -208 0
v -192 -192 0
v -176 -192 0
v -192 -208 0
v -208 -208 0
v -208 -192 0
v -192 -192 0
v -208 -208 0
v -224 -208 0
v -224 -192 0
v -208 -192 0
v -224 -208 0
v -240 -208 0
v -240 -192 0
v -224 -192 0
v -240 -208 0
v -256 -208 0
v -256 -192 0
v -240 -192 0
v -256 -208 0
v -272 -208 0
v -272 -192 0
v -256 -192 0
v -272 -208 0
v -288 -208 0
v -288 -192 0
v -272 -192 0
v -320 -208 0
v -336 -208 0
v -336 -192 0
v -320 -192 0
v -336 -208 0
v -352 -208 0
v -352 -192 0
v -336 -192 0
v -352 -208 0
v -368 -208 0
v -368 -192 0
v -352 -192 0
v -368 -208 0
v -384 -208 0
v -384 -192 0
v -368 -192 0
v -384 -208 0
v -400 -208 0
v -400 -192 0
v -384 -192 0
v -400 -208 0
v -416 -208 0
v -416 -192 0
v -400 -192 0
v -416 -208 0
v -432 -208 0
v -432 -192 0
v -416 -192 0
v -432 -208 0
v -448 -208 0
v -448 -192 0
v -432 -192 0
v -448 -208 0
v -464 -208 0
v -464 -192 0
v -448 -192 0
v -464 -208 0
v -480 -208 0
v -480 -192 0
v -464 -192 0
v -64 -224 0
v -80 -224 0
v -80 -208 0
v -64 -208 0
v -80 -224 0
v -96 -224 0
v -96 -208 0
v -80 -208 0
v -96 -224 0
v -112 -224 0
v -112 -208 0
v -96 -208 0
v -112 -224 0
v -128 -224 0
v -128 -208 0
v -112 -208 0
v -128 -224 0
v -144 -224 0
v -144 -208 0
v -128 -208 0
v -144 -224 0
v -160 -224 0
v -160 -208 0
v -144 -208 0
v -160 -224 0
v -176 -224 0
v -176 -208 0
v -160 -208 0
v -176 -224 0
v -192 -224 0
v -192 -208 0
v -176 -208 0
v -192 -224 0
v -208 -224 0
v -208 -208 0
v -192 -208 0
v -208 -224 0
v -224 -224 0
v -224 -208 0
v -208 -208 0
v -224 -224 0
v -240 -224 0
v -240 -208 0
v -224 -208 0
v -240 -224 0
v -256 -224 0
v -256 -208 0
v -240 -208 0
v -256 -224 0
v -272 -224 0
v -272 -208 0
v -256 -208 0
v -272 -224 0
v -288 -224 0
v -288 -208 0
v -272 -208 0
v -320 -224 0
v -336 -224 0
v -336 -208 0
v -320 -208 0
v -336 -224 0
v -352 -224 0
v -352 -208 0
v -336 -208 0
v -352 -224 0
v -368 -224 0
v -368 -208 0
v -352 -208 0
v -368 -224 0
v -384 -224 0
v -384 -208 0
v -368 -208 0
v -384 -224 0
v -400 -224 0
v -400 -208 0
v -384 -208 0
v -400 -224 0
v -416 -224 0
v -416 -208 0
v -400 -208 0
v -416 -224 0
v -432 -224 0
v -432 -208 0
v -416 -208 0
v -432 -224 0
v -448 -224 0
v -448 -208 0
v -432 -208 0
v -448 -224 0
v -464 -224 0
v -464 -208 0
v -448 -208 0
v -464 -224 0
v -480 -224 0
v -480 -208 0
v -464 -208 0
v -64 -240 0
v -80 -240 0
v -80 -224 0
v -64 -224 0
v -80 -240 0
v -96 -240 0
v -96 -224 0
v -80 -224 0
v -96 -240 0
v -112 -240 0
v -112 -224 0
v -96 -224 0
v -112 -240 0
v -128 -240 0
v -128 -224 0
v -112 -224 0
v -128 -240 0
v -144 -240 0
v -144 -224 0
v -128 -224 0
v -144 -240 0
v -160 -240 0
v -160 -224 0
v -144 -224 0
v -160 -240 0
v -176 -240 0
v -176 -224 0
v -160 -224 0
v -176 -240 0
v -192 -240 0
v -192 -224 0
v -176 -224 0
v -192 -240 0
v -208 -240 0
v -208 -224 0
v -192 -224 0
v -208 -240 0
v -224 -240 0
v -224 -224 0
v -208 -224 0
v -224 -240 0
v -240 -240 0
v -240 -224 0
v -224 -224 0
v -240 -240 0
v -256 -240 0
v -256 -224 0
v -240 -224 0
v -256 -240 0
v -272 -240 0
v -272 -224 0
v -256 -224 0
v -272 -240 0
v -288 -240 0
v -288 -224 0
v -272 -224 0
v -320 -240 0
v -336 -240 0
v -336 -224 0
v -320 -224 0
v -336 -240 0
v -352 -240 0
v -352 -224 0
v -336 -224 0
v -352 -240 0
v -368 -240 0
v -368 -224 0
v -352 -224 0
v -368 -240 0
v -384 -240 0
v -384 -224 0
v -368 -224 0
v -384 -240 0
v -400 -240 0
v -400 -224 0
v -384 -224 0
v -400 -240 0
v -416 -240 0
v -416 -224 0
v -400 -224 0
v -416 -240 0
v -432 -240 0
v -432 -224 0
v -416 -224 0
v -432 -240 0
v -448 -240 0
v -448 -224 0
v -432 -224 0
v -448 -240 0
v -464 -240 0
v -464 -224 0
v -448 -224 0
v -464 -240 0
v -480 -240 0
v -480 -224 0
v -464 -224 0
v -64 -256 0
v -80 -256 0
v -80 -240 0
v -64 -240 0
v -80 -256 0
v -96 -256 0
v -96 -240 0
v -80 -240 0
v -96 -256 0
v -112 -256 0
v -112 -240 0
v -96 -240 0
v -112 -256 0
v -128 -256 0
v -128 -240 0
v -112 -240 0
v -128 -256 0
v -144 -256 0
v -144 -240 0
v -128 -240 0
v -144 -256 0
v -160 -256 0
v -160 -240 0
v -144 -240 0
v -160 -256 0
v -176 -256 0
v -176 -240 0
v -160 -240 0
v -176 -256 0
v -192 -256 0
v -192 -240 0
v -176 -240 0
v -192 -256 0
v -208 -256 0
v -208 -240 0
v -192 -240 0
v -208 -256 0
v -224 -256 0
v -224 -240 0
v -208 -240 0
v -224 -256 0
v -240 -256 0
v -240 -240 0
v -224 -240 0
v -240 -256 0
v -256 -256 0
v -256 -240 0
v -240 -240 0
v -256 -256 0
v -272 -256 0
v -272 -240 0
v -256 -240 0
v -272 -256 0
v -288 -256 0
v -288 -240 0
v -272 -240 0
v -320 -256 0
v -336 -256 0
v -336 -240 0
v -320 -240 0
v -336 -256 0
v -352 -256 0
v -352 -240 0
v -336 -240 0
v -352 -256 0
v -368 -256 0
v -368 -240 0
v -352 -240 0
v -368 -256 0
v -384 -256 0
v -384 -240 0
v -368 -240 0
v -384 -256 0
v -400 -256 0
v -400 -240 0
v -384 -240 0
v -400 -256 0
v -416 -256 0
v -416 -240 0
v -400 -240 0
v -416 -256 0
v -432 -256 0
v -432 -240 0
v -416 -240 0
v -432 -256 0
v -448 -256 0
v -448 -240 0
v -432 -240 0
v -448 -256 0
v -464 -256 0
v -464 -240 0
v -448 -240 0
v -464 -256 0
v -480 -256 0
v -480 -240 0
v -464 -240 0
v -64 -272 0
v -80 -272 0
v -80 -256 0
v -64 -256 0
v -80 -272 0
v -96 -272 0
v -96 -256 0
v -80 -256 0
v -96 -272 0
v -112 -272 0
v -112 -256 0
v -96 -256 0
v -112 -272 0
v -128 -272 0
v -128 -256 0
v -112 -256 0
v -128 -272 0
v -144 -272 0
v -144 -256 0
v -128 -256 0
v -144 -272 0
v -160 -272 0
v -160 -256 0
v -144 -256 0
v -160 -272 0
v -176 -272 0
v -176 -256 0
v -160 -256 0
v -176 -272 0
v -192 -272 0
v -192 -256 0
v -176 -256 0
v -192 -272 0
v -208 -272 0
v -208 -256 0
v -192 -256 0
v -208 -272 0
v -224 -272 0
v -224 -256 0
v -208 -256 0
v -224 -272 0
v -240 -272 0
v -240 -256 0
v -224 -256 0
v -240 -272 0
v -256 -272 0
v -256 -256 0
v -240 -256 0
v -256 -272 0
v -272 -272 0
v -272 -256 0
v -256 -256 0
v -272 -272 0
v -288 -272 0
v -288 -256 0
v -272 -256 0
v -320 -272 0
v -336 -272 0
v -336 -256 0
v -320 -256 0
v -336 -272 0
v -352 -272 0
v -352 -256 0
v -336 -256 0
v -352 -272 0
v -368 -272 0
v -368 -256 0
v -352 -256 0
v -368 -272 0
v -384 -272 0
v -384 -256 0
v -368 -256 0
v -384 -272 0
v -400 -272 0
v -400 -256 0
v -384 -256 0
v -400 -272 0
v -416 -272 0
v -416 -256 0
v -400 -256 0
v -416 -272 0
v -432 -272 0
v -432 -256 0
v -416 -256 0
v -432 -272 0
v -448 -272 0
v -448 -256 0
v -432 -256 0
v -448 -272 0
v -464 -272 0
v -464 -256 0
v -448 -256 0
v -464 -272 0
v -480 -272 0
v -480 -256 0
v -464 -256 0
v -64 -288 0
v -80 -288 0
v -80 -272 0
v -64 -272 0
v -80 -288 0
v -96 -288 0
v -96 -272 0
v -80 -272 0
v -96 -288 0
v -112 -288 0
v -112 -272 0
v -96 -272 0
v -112 -288 0
v -128 -288 0
v -128 -272 0
v -112 -272 0
v -128 -288 0
v -144 -288 0
v -144 -272 0
v -128 -272 0
v -144 -288 0
v -160 -288 0
v -160 -272 0
v -144 -272 0
v -160 -288 0
v -176 -288 0
v -176 -272 0
v -160 -272 0
v -176 -288 0
v -192 -288 0
v -192 -272 0
v -176 -272 0
v -192 -288 0
v -208 -288 0
v -208 -272 0
v -192 -272 0
v -208 -288 0
v -224 -288 0
v -224 -272 0
v -208 -272 0
v -224 -288 0
v -240 -288 0
v -240 -272 0
v -224 -272 0
v -240 -288 0
v -256 -288 0
v -256 -272 0
v -240 -272 0
v -256 -288 0
v -272 -288 0
v -272 -272 0
v -256 -272 0
v -272 -288 0
v -288 -288 0
v -288 -272 0
v -272 -272 0
v -320 -288 0
v -336 -288 0
v -336 -272 0
v -320 -272 0
v -336 -288 0
v -352 -288 0
v -352 -272 0
v -336 -272 0
v -352 -288 0
v -368 -288 0
v -368 -272 0
v -352 -272 0
v -368 -288 0
v -384 -288 0
v -384 -272 0
v -368 -272 0
v -384 -288 0
v -400 -288 0
v -400 -272 0
v -384 -272 0
v -400 -288 0
v -416 -288 0
v -416 -272 0
v -400 -272 0
v -416 -288 0
v -432 -288 0
v -432 -272 0
v -416 -272 0
v -432 -288 0
v -448 -288 0
v -448 -272 0
v -432 -272 0
v -448 -288 0
v -464 -288 0
v -464 -272 0
v -448 -272 0
v -464 -288 0
v -480 -288 0
v -480 -272 0
v -464 -272 0
v -64 -304 0
v -80 -304 0
v -80 -288 0
v -64 -288 0
v -80 -304 0
v -96 -304 0
v -96 -288 0
v -80 -288 0
v -96 -304 0
v -112 -304 0
v -112 -288 0
v -96 -288 0
v -112 -304 0
v -128 -304 0
v -128 -288 0
v -112 -288 0
v -128 -304 0
v -144 -304 0
v -144 -288 0
v -128 -288 0
v -144 -304 0
v -160 -304 0
v -160 -288 0
v -144 -288 0
v -160 -304 0
v -176 -304 0
v -176 -288 0
v -160 -288 0
v -176 -304 0
v -192 -304 0
v -192 -288 0
v -176 -288 0
v -192 -304 0
v -208 -304 0
v -208 -288 0
v -192 -288 0
v -208 -304 0
v -224 -304 0
v -224 -288 0
v -208 -288 0
v -224 -304 0
v -240 -304 0
v -240 -288 0
v -224 -288 0
v -240 -304 0
v -256 -304 0
v -256 -288 0
v -240 -288 0
v -256 -304 0
v -272 -304 0
v -272 -288 0
v -256 -288 0
v -272 -304 0
v -288 -304 0
v -288 -288 0
v -272 -288 0
v -288 -304 0
v -304 -304 0
v -304 -288 0
v -288 -288 0
v -304 -304 0
v -320 -304 0
v -320 -288 0
v -304 -288 0
v -320 -304 0
v -336 -304 0
v -336 -288 0
v -320 -288 0
v -336 -304 0
v -352 -304 0
v -352 -288 0
v -336 -288 0
v -352 -304 0
v -368 -304 0
v -368 -288 0
v -352 -288 0
v -368 -304 0
v -384 -304 0
v -384 -288 0
v -368 -288 0
v -384 -304 0
v -400 -304 0
v -400 -288 0
v -384 -288 0
v -400 -304 0
v -416 -304 0
v -416 -288 0
v -400 -288 0
v -416 -304 0
v -432 -304 0
v -432 -288 0
v -416 -288 0
v -432 -304 0
v -448 -304 0
v -448 -288 0
v -432 -288 0
v -448 -304 0
v -464 -304 0
v -464 -288 0
v -448 -288 0
v -464 -304 0
v -480 -304 0
v -480 -288 0
v -464 -288 0

# Texture cooridinates (Count = 39)
vt 0.8235294 0.125
vt 0.8823529 0.125
vt 0.8823529 0.25
vt 0.8235294 0.25
vt 0.8823529 0.375
vt 0.8235294 0.375
vt 0.9411765 0.25
vt 0.9411765 0.375
vt 0.9411765 0.125
vt 1 0.25
vt 1 0.375
vt 1 0.125
vt 0.4705882 0.5
vt 0.5294118 0.5
vt 0.5294118 0.625
vt 0.4705882 0.625
vt 0.4117647 0.625
vt 0.4705882 0.75
vt 0.4117647 0.75
vt 0.5882353 0.5
vt 0.5882353 0.625
vt 0.5882353 0.875
vt 0.6470588 0.875
vt 0.6470588 1
vt 0.5882353 1
vt 0.7058824 0.875
vt 0.7058824 1
vt 0.6470588 0.5
vt 0.6470588 0.625
vt 0.6470588 0.75
vt 0.7058824 0.75
vt 0.5882353 0.75
vt 0.4117647 0.5
vt 0.4705882 0.875
vt 0.4117647 0.875
vt 0.4705882 0.25
vt 0.5294118 0.25
vt 0.5294118 0.375
vt 0.4705882 0.375

# Normal
vn 0 0 -1

# Mesh description
g start_mesh_0001

# Faces
f 1/1/1 2/2/1 3/3/1 4/4/1
f 5/4/1 6/3/1 7/5/1 8/6/1
f 9/3/1 10/7/1 11/8/1 12/5/1
f 13/2/1 14/9/1 15/7/1 16/3/1
f 17/2/1 18/9/1 19/7/1 20/3/1
f 21/7/1 22/10/1 23/11/1 24/8/1
f 25/9/1 26/12/1 27/10/1 28/7/1
f 29/7/1 30/10/1 31/11/1 32/8/1
f 33/13/1 34/14/1 35/15/1 36/16/1
f 37/17/1 38/16/1 39/18/1 40/19/1
f 41/17/1 42/16/1 43/18/1 44/19/1
f 45/17/1 46/16/1 47/18/1 48/19/1
f 49/17/1 50/16/1 51/18/1 52/19/1
f 53/17/1 54/16/1 55/18/1 56/19/1
f 57/17/1 58/16/1 59/18/1 60/19/1
f 61/17/1 62/16/1 63/18/1 64/19/1
f 65/17/1 66/16/1 67/18/1 68/19/1
f 69/17/1 70/16/1 71/18/1 72/19/1
f 73/17/1 74/16/1 75/18/1 76/19/1
f 77/17/1 78/16/1 79/18/1 80/19/1
f 81/17/1 82/16/1 83/18/1 84/19/1
f 85/14/1 86/20/1 87/21/1 88/15/1
f 89/22/1 90/23/1 91/24/1 92/25/1
f 93/23/1 94/26/1 95/27/1 96/24/1
f 97/23/1 98/26/1 99/27/1 100/24/1
f 101/23/1 102/26/1 103/27/1 104/24/1
f 105/23/1 106/26/1 107/27/1 108/24/1
f 109/23/1 110/26/1 111/27/1 112/24/1
f 113/23/1 114/26/1 115/27/1 116/24/1
f 117/23/1 118/26/1 119/27/1 120/24/1
f 121/23/1 122/26/1 123/27/1 124/24/1
f 125/23/1 126/26/1 127/27/1 128/24/1
f 129/20/1 130/28/1 131/29/1 132/21/1
f 133/30/1 134/31/1 135/26/1 136/23/1
f 137/30/1 138/31/1 139/26/1 140/23/1
f 141/30/1 142/31/1 143/26/1 144/23/1
f 145/30/1 146/31/1 147/26/1 148/23/1
f 149/30/1 150/31/1 151/26/1 152/23/1
f 153/30/1 154/31/1 155/26/1 156/23/1
f 157/30/1 158/31/1 159/26/1 160/23/1
f 161/30/1 162/31/1 163/26/1 164/23/1
f 165/30/1 166/31/1 167/26/1 168/23/1
f 169/30/1 170/31/1 171/26/1 172/23/1
f 173/30/1 174/31/1 175/26/1 176/23/1
f 177/30/1 178/31/1 179/26/1 180/23/1
f 181/30/1 182/31/1 183/26/1 184/23/1
f 185/32/1 186/30/1 187/23/1 188/22/1
f 189/30/1 190/31/1 191/26/1 192/23/1
f 193/30/1 194/31/1 195/26/1 196/23/1
f 197/30/1 198/31/1 199/26/1 200/23/1
f 201/30/1 202/31/1 203/26/1 204/23/1
f 205/30/1 206/31/1 207/26/1 208/23/1
f 209/30/1 210/31/1 211/26/1 212/23/1
f 213/30/1 214/31/1 215/26/1 216/23/1
f 217/30/1 218/31/1 219/26/1 220/23/1
f 221/30/1 222/31/1 223/26/1 224/23/1
f 225/20/1 226/28/1 227/29/1 228/21/1
f 229/30/1 230/31/1 231/26/1 232/23/1
f 233/33/1 234/13/1 235/16/1 236/17/1
f 237/30/1 238/31/1 239/26/1 240/23/1
f 241/30/1 242/31/1 243/26/1 244/23/1
f 245/30/1 246/31/1 247/26/1 248/23/1
f 249/30/1 250/31/1 251/26/1 252/23/1
f 253/30/1 254/31/1 255/26/1 256/23/1
f 257/30/1 258/31/1 259/26/1 260/23/1
f 261/30/1 262/31/1 263/26/1 264/23/1
f 265/30/1 266/31/1 267/26/1 268/23/1
f 269/30/1 270/31/1 271/26/1 272/23/1
f 273/30/1 274/31/1 275/26/1 276/23/1
f 277/30/1 278/31/1 279/26/1 280/23/1
f 281/32/1 282/30/1 283/23/1 284/22/1
f 285/30/1 286/31/1 287/26/1 288/23/1
f 289/19/1 290/18/1 291/34/1 292/35/1
f 293/30/1 294/31/1 295/26/1 296/23/1
f 297/30/1 298/31/1 299/26/1 300/23/1
f 301/30/1 302/31/1 303/26/1 304/23/1
f 305/30/1 306/31/1 307/26/1 308/23/1
f 309/30/1 310/31/1 311/26/1 312/23/1
f 313/30/1 314/31/1 315/26/1 316/23/1
f 317/19/1 318/18/1 319/34/1 320/35/1
f 321/20/1 322/28/1 323/29/1 324/21/1
f 325/30/1 326/31/1 327/26/1 328/23/1
f 329/33/1 330/13/1 331/16/1 332/17/1
f 333/30/1 334/31/1 335/26/1 336/23/1
f 337/30/1 338/31/1 339/26/1 340/23/1
f 341/30/1 342/31/1 343/26/1 344/23/1
f 345/30/1 346/31/1 347/26/1 348/23/1
f 349/33/1 350/13/1 351/16/1 352/17/1
f 353/30/1 354/31/1 355/26/1 356/23/1
f 357/30/1 358/31/1 359/26/1 360/23/1
f 361/30/1 362/31/1 363/26/1 364/23/1
f 365/33/1 366/13/1 367/16/1 368/17/1
f 369/30/1 370/31/1 371/26/1 372/23/1
f 373/30/1 374/31/1 375/26/1 376/23/1
f 377/32/1 378/30/1 379/23/1 380/22/1
f 381/19/1 382/18/1 383/34/1 384/35/1
f 385/19/1 386/18/1 387/34/1 388/35/1
f 389/30/1 390/31/1 391/26/1 392/23/1
f 393/30/1 394/31/1 395/26/1 396/23/1
f 397/30/1 398/31/1 399/26/1 400/23/1
f 401/30/1 402/31/1 403/26/1 404/23/1
f 405/30/1 406/31/1 407/26/1 408/23/1
f 409/19/1 410/18/1 411/34/1 412/35/1
f 413/30/1 414/31/1 415/26/1 416/23/1
f 417/20/1 418/28/1 419/29/1 420/21/1
f 421/30/1 422/31/1 423/26/1 424/23/1
f 425/30/1 426/31/1 427/26/1 428/23/1
f 429/30/1 430/31/1 431/26/1 432/23/1
f 433/30/1 434/31/1 435/26/1 436/23/1
f 437/30/1 438/31/1 439/26/1 440/23/1
f 441/30/1 442/31/1 443/26/1 444/23/1
f 445/33/1 446/13/1 447/16/1 448/17/1
f 449/30/1 450/31/1 451/26/1 452/23/1
f 453/30/1 454/31/1 455/26/1 456/23/1
f 457/30/1 458/31/1 459/26/1 460/23/1
f 461/30/1 462/31/1 463/26/1 464/23/1
f 465/30/1 466/31/1 467/26/1 468/23/1
f 469/30/1 470/31/1 471/26/1 472/23/1
f 473/32/1 474/30/1 475/23/1 476/22/1
f 477/19/1 478/18/1 479/34/1 480/35/1
f 481/19/1 482/18/1 483/34/1 484/35/1
f 485/30/1 486/31/1 487/26/1 488/23/1
f 489/30/1 490/31/1 491/26/1 492/23/1
f 493/30/1 494/31/1 495/26/1 496/23/1
f 497/30/1 498/31/1 499/26/1 500/23/1
f 501/30/1 502/31/1 503/26/1 504/23/1
f 505/19/1 506/18/1 507/34/1 508/35/1
f 509/30/1 510/31/1 511/26/1 512/23/1
f 513/20/1 514/28/1 515/29/1 516/21/1
f 517/30/1 518/31/1 519/26/1 520/23/1
f 521/30/1 522/31/1 523/26/1 524/23/1
f 525/30/1 526/31/1 527/26/1 528/23/1
f 529/30/1 530/31/1 531/26/1 532/23/1
f 533/30/1 534/31/1 535/26/1 536/23/1
f 537/33/1 538/13/1 539/16/1 540/17/1
f 541/33/1 542/13/1 543/16/1 544/17/1
f 545/30/1 546/31/1 547/26/1 548/23/1
f 549/30/1 550/31/1 551/26/1 552/23/1
f 553/30/1 554/31/1 555/26/1 556/23/1
f 557/30/1 558/31/1 559/26/1 560/23/1
f 561/30/1 562/31/1 563/26/1 564/23/1
f 565/30/1 566/31/1 567/26/1 568/23/1
f 569/32/1 570/30/1 571/23/1 572/22/1
f 573/30/1 574/31/1 575/26/1 576/23/1
f 577/30/1 578/31/1 579/26/1 580/23/1
f 581/30/1 582/31/1 583/26/1 584/23/1
f 585/30/1 586/31/1 587/26/1 588/23/1
f 589/19/1 590/18/1 591/34/1 592/35/1
f 593/30/1 594/31/1 595/26/1 596/23/1
f 597/30/1 598/31/1 599/26/1 600/23/1
f 601/30/1 602/31/1 603/26/1 604/23/1
f 605/30/1 606/31/1 607/26/1 608/23/1
f 609/20/1 610/28/1 611/29/1 612/21/1
f 613/30/1 614/31/1 615/26/1 616/23/1
f 617/30/1 618/31/1 619/26/1 620/23/1
f 621/30/1 622/31/1 623/26/1 624/23/1
f 625/30/1 626/31/1 627/26/1 628/23/1
f 629/30/1 630/31/1 631/26/1 632/23/1
f 633/30/1 634/31/1 635/26/1 636/23/1
f 637/30/1 638/31/1 639/26/1 640/23/1
f 641/30/1 642/31/1 643/26/1 644/23/1
f 645/30/1 646/31/1 647/26/1 648/23/1
f 649/30/1 650/31/1 651/26/1 652/23/1
f 653/30/1 654/31/1 655/26/1 656/23/1
f 657/30/1 658/31/1 659/26/1 660/23/1
f 661/30/1 662/31/1 663/26/1 664/23/1
f 665/32/1 666/30/1 667/23/1 668/22/1
f 669/30/1 670/31/1 671/26/1 672/23/1
f 673/30/1 674/31/1 675/26/1 676/23/1
f 677/30/1 678/31/1 679/26/1 680/23/1
f 681/30/1 682/31/1 683/26/1 684/23/1
f 685/30/1 686/31/1 687/26/1 688/23/1
f 689/30/1 690/31/1 691/26/1 692/23/1
f 693/30/1 694/31/1 695/26/1 696/23/1
f 697/30/1 698/31/1 699/26/1 700/23/1
f 701/30/1 702/31/1 703/26/1 704/23/1
f 705/20/1 706/28/1 707/29/1 708/21/1
f 709/30/1 710/31/1 711/26/1 712/23/1
f 713/30/1 714/31/1 715/26/1 716/23/1
f 717/33/1 718/13/1 719/16/1 720/17/1
f 721/33/1 722/13/1 723/16/1 724/17/1
f 725/30/1 726/31/1 727/26/1 728/23/1
f 729/30/1 730/31/1 731/26/1 732/23/1
f 733/30/1 734/31/1 735/26/1 736/23/1
f 737/30/1 738/31/1 739/26/1 740/23/1
f 741/30/1 742/31/1 743/26/1 744/23/1
f 745/30/1 746/31/1 747/26/1 748/23/1
f 749/33/1 750/13/1 751/16/1 752/17/1
f 753/30/1 754/31/1 755/26/1 756/23/1
f 757/30/1 758/31/1 759/26/1 760/23/1
f 761/32/1 762/30/1 763/23/1 764/22/1
f 765/30/1 766/31/1 767/26/1 768/23/1
f 769/30/1 770/31/1 771/26/1 772/23/1
f 773/19/1 774/18/1 775/34/1 776/35/1
f 777/30/1 778/31/1 779/26/1 780/23/1
f 781/30/1 782/31/1 783/26/1 784/23/1
f 785/19/1 786/18/1 787/34/1 788/35/1
f 789/30/1 790/31/1 791/26/1 792/23/1
f 793/30/1 794/31/1 795/26/1 796/23/1
f 797/19/1 798/18/1 799/34/1 800/35/1
f 801/20/1 802/28/1 803/29/1 804/21/1
f 805/30/1 806/31/1 807/26/1 808/23/1
f 809/30/1 810/31/1 811/26/1 812/23/1
f 813/33/1 814/13/1 815/16/1 816/17/1
f 817/33/1 818/13/1 819/16/1 820/17/1
f 821/30/1 822/31/1 823/26/1 824/23/1
f 825/30/1 826/31/1 827/26/1 828/23/1
f 829/30/1 830/31/1 831/26/1 832/23/1
f 833/30/1 834/31/1 835/26/1 836/23/1
f 837/30/1 838/31/1 839/26/1 840/23/1
f 841/33/1 842/13/1 843/16/1 844/17/1
f 845/33/1 846/13/1 847/16/1 848/17/1
f 849/30/1 850/31/1 851/26/1 852/23/1
f 853/30/1 854/31/1 855/26/1 856/23/1
f 857/32/1 858/30/1 859/23/1 860/22/1
f 861/19/1 862/18/1 863/34/1 864/35/1
f 865/30/1 866/31/1 867/26/1 868/23/1
f 869/30/1 870/31/1 871/26/1 872/23/1
f 873/30/1 874/31/1 875/26/1 876/23/1
f 877/30/1 878/31/1 879/26/1 880/23/1
f 881/30/1 882/31/1 883/26/1 884/23/1
f 885/30/1 886/31/1 887/26/1 888/23/1
f 889/30/1 890/31/1 891/26/1 892/23/1
f 893/19/1 894/18/1 895/34/1 896/35/1
f 897/20/1 898/28/1 899/29/1 900/21/1
f 901/30/1 902/31/1 903/26/1 904/23/1
f 905/30/1 906/31/1 907/26/1 908/23/1
f 909/30/1 910/31/1 911/26/1 912/23/1
f 913/30/1 914/31/1 915/26/1 916/23/1
f 917/30/1 918/31/1 919/26/1 920/23/1
f 921/30/1 922/31/1 923/26/1 924/23/1
f 925/30/1 926/31/1 927/26/1 928/23/1
f 929/30/1 930/31/1 931/26/1 932/23/1
f 933/30/1 934/31/1 935/26/1 936/23/1
f 937/30/1 938/31/1 939/26/1 940/23/1
f 941/30/1 942/31/1 943/26/1 944/23/1
f 945/30/1 946/31/1 947/26/1 948/23/1
f 949/30/1 950/31/1 951/26/1 952/23/1
f 953/36/1 954/37/1 955/38/1 956/39/1
f 957/36/1 958/37/1 959/38/1 960/39/1
f 961/32/1 962/30/1 963/23/1 964/22/1
f 965/30/1 966/31/1 967/26/1 968/23/1
f 969/30/1 970/31/1 971/26/1 972/23/1
f 973/30/1 974/31/1 975/26/1 976/23/1
f 977/30/1 978/31/1 979/26/1 980/23/1
f 981/30/1 982/31/1 983/26/1 984/23/1
f 985/30/1 986/31/1 987/26/1 988/23/1
f 989/30/1 990/31/1 991/26/1 992/23/1
f 993/30/1 994/31/1 995/26/1 996/23/1
f 997/30/1 998/31/1 999/26/1 1000/23/1

